<svg height="496pt" viewBox="-56 0 496 496" width="496pt" xmlns="http://www.w3.org/2000/svg"><path d="m312 8c-17.671875 0-32 14.328125-32 32v224h64v-224c0-17.671875-14.328125-32-32-32zm0 0" fill="#5789d6"/><path d="m300 10.375c-11.71875 4.753906-20 16.199219-20 29.625v224h40v-224c0-13.425781-8.28125-24.871094-20-29.625zm0 0" fill="#699ce6"/><path d="m280 56h64v32h-64zm0 0" fill="#bc8f6f"/><path d="m280 56h40v32h-40zm0 0" fill="#cb9e78"/><path d="m296 424v32c17.671875 0 32 14.328125 32 32v-64" fill="#656665"/><path d="m312 460.441406v-36.441406h-16v32c5.855469 0 11.28125 1.6875 16 4.441406zm0 0" fill="#bab8b9"/><path d="m296 264h32v32h-32zm0 0" fill="#656665"/><path d="m296 264h16v32h-16zm0 0" fill="#999"/><path d="m280 296h64v128h-64zm0 0" fill="#599072"/><path d="m280 296h40v128h-40zm0 0" fill="#70b48f"/><path d="m280 88h64v176h-64zm0 0" fill="#599072"/><path d="m280 88h40v176h-40zm0 0" fill="#70b48f"/><path d="m8 40h240v336h-240zm0 0" fill="#656665"/><path d="m280 72h-176v64h-64v272h240" fill="#bab8b9"/><path d="m40 136 64-64v64zm0 0" fill="#999"/><path d="m328 496c-4.414062 0-8-3.574219-8-8 0-13.230469-10.769531-24-24-24-4.414062 0-8-3.574219-8-8v-32h16v24.808594c5.902344 1.199218 11.34375 3.710937 16 7.207031v-32.015625h16v64c0 4.425781-3.585938 8-8 8zm0 0"/><path d="m344 432h-64c-4.414062 0-8-3.574219-8-8v-128c0-4.425781 3.585938-8 8-8h64c4.414062 0 8 3.574219 8 8v128c0 4.425781-3.585938 8-8 8zm-56-16h48v-112h-48zm0 0"/><path d="m344 272h-64c-4.414062 0-8-3.574219-8-8v-224c0-22.054688 17.945312-40 40-40s40 17.945312 40 40v224c0 4.425781-3.585938 8-8 8zm-56-16h48v-216c0-13.230469-10.769531-24-24-24s-24 10.769531-24 24zm0 0"/><path d="m288 264h16v32h-16zm0 0"/><path d="m320 264h16v32h-16zm0 0"/><path d="m384 176h-16v-112h-88v-16h96c4.414062 0 8 3.585938 8 8zm0 0"/><path d="m280 80h64v16h-64zm0 0"/><path d="m280 416h-240c-4.414062 0-8-3.574219-8-8v-272c0-4.414062 3.585938-8 8-8h56v-56c0-4.414062 3.585938-8 8-8h176v16h-168v56c0 4.414062-3.585938 8-8 8h-56v256h232zm0 0"/><path d="m40 384h-32c-4.414062 0-8-3.574219-8-8v-336c0-4.414062 3.585938-8 8-8h240c4.414062 0 8 3.585938 8 8v32h-16v-24h-224v320h24zm0 0"/><path d="m34.339844 130.34375 64.003906-64 11.3125 11.3125-64 64zm0 0"/><path d="m256 384h-24c-4.414062 0-8-3.574219-8-8v-12.6875l-18.34375 18.34375c-1.496094 1.503906-3.535156 2.34375-5.65625 2.34375h-24c-4.414062 0-8-3.574219-8-8v-12.6875l-18.34375 18.34375-11.3125-11.3125 32-32c2.289062-2.289062 5.710938-2.984375 8.71875-1.734375 2.984375 1.230469 4.9375 4.160156 4.9375 7.390625v24h12.6875l29.65625-29.65625c2.289062-2.289062 5.71875-2.984375 8.71875-1.734375 2.984375 1.230469 4.9375 4.160156 4.9375 7.390625v24h16zm0 0"/><path d="m64 160h192v16h-192zm0 0"/><path d="m64 192h192v16h-192zm0 0"/><path d="m64 224h192v16h-192zm0 0"/><path d="m64 256h192v16h-192zm0 0"/></svg>